<?xml version="1.0" encoding="utf-8"?>
<?xml-stylesheet type="text/xsl" href="rss1.xsl"?>
<rss version="2.0" xmlns:atom="http://www.w3.org/2005/Atom" xmlns:content="http://purl.org/rss/1.0/modules/content/" xmlns:dc="http://purl.org/dc/elements/1.1/" xmlns:media="http://search.yahoo.com/mrss/">
<channel>
 <title>Getty</title>
 <link>http://www.gettyimg.com/</link>
 <atom:link href="http://www.gettyimg.com/" rel="self" type="application/rss+xml" />

 
                <item>
                <title><![CDATA[【UPSCALED】Girls' Generation - FLOWER POWER [4K.AI.UPSCALE.x265.10bit]]]></title>
                <link><![CDATA[https://sharemania.us/threads/girls-generation-flower-power-4k-ai-upscale-x265-10bit.230071/]]></link>
                <description><![CDATA[<article>
<blockquote class="messageText SelectQuoteContainer ugc baseHtml">
<img src="https://i.imgur.com/jizyv5O.png" class="bbCodeImage LbImage" alt="[​IMG]" data-url="https://i.imgur.com/jizyv5O.png" style=""><br>
<img src="https://i.imgur.com/utibWD6.jpg" class="bbCodeImage LbImage" alt="[​IMG]" data-url="https://i.imgur.com/utibWD6.jpg" style=""><br>
<img src="https://i.imgur.com/98BDfpS.jpg" class="bbCodeImage LbImage" alt="[​IMG]" data-url="https://i.imgur.com/98BDfpS.jpg" style=""><br>
<br>
<div class="bbCodeBlock bbCodeCode">
<div class="type">Code:</div>
<pre>General
Format                                   : Matroska
Format version                           : Version 4
File size                                : 660 MiB
Duration                                 : 3 min 42 s
Overall bit rate                         : 24.8 Mb/s
Frame rate                               : 23.976 FPS

Video
ID                                       : 1
Format                                   : HEVC
Format/Info                              : High Efficiency Video Coding
Format profile                           : Main 10@L5.1@High
Codec ID                                 : V_MPEGH/ISO/HEVC
Duration                                 : 3 min 42 s
Bit rate                                 : 23.9 Mb/s
Width                                    : 3 840 pixels
Height                                   : 2 160 pixels
Display aspect ratio                     : 16:9
Frame rate mode                          : Constant
Frame rate                               : 23.976 (24000/1001) FPS
Color space                              : YUV
Chroma subsampling                       : 4:2:0 (Type 0)
Bit depth                                : 10 bits
Bits/(Pixel*Frame)                       : 0.120
Stream size                              : 635 MiB (96%)
Default                                  : Yes
Forced                                   : No
Color range                              : Limited
Color primaries                          : BT.709
Transfer characteristics                 : BT.709
Matrix coefficients                      : BT.709

Audio
ID                                       : 2
Format                                   : AC-3
Format/Info                              : Audio Coding 3
Commercial name                          : Dolby Digital
Codec ID                                 : A_AC3
Duration                                 : 3 min 42 s
Bit rate mode                            : Constant
Bit rate                                 : 448 kb/s
Channel(s)                               : 2 channels
Channel layout                           : L R
Sampling rate                            : 48.0 kHz
Frame rate                               : 31.250 FPS (1536 SPF)
Compression mode                         : Lossy
Delay relative to video                  : -5 ms
Stream size                              : 11.9 MiB (2%)
Title                                    : Stereo
Service kind                             : Complete Main
Default                                  : Yes
Forced                                   : No</pre>
</div><div style="text-align: center">
<div class="bbCodeBlock bbCodeVfcHH HiddenContent">
<div class="attribution type">Hidden Content:</div>
<blockquote>You must reply before you can see the hidden data contained here.</blockquote>
</div></div>
<div class="messageTextEndMarker">&nbsp;</div>
</blockquote>
</article>]]></description>
                <author><![CDATA[Librious]]></author>
                </item>

                
                <item>
                <title><![CDATA[【Music Videos】Girls' Generation - FLOWER POWER [1080p.60fps.x265.10bit]]]></title>
                <link><![CDATA[https://sharemania.us/threads/girls-generation-flower-power-1080p-60fps-x265-10bit.230072/]]></link>
                <description><![CDATA[<article>
<blockquote class="messageText SelectQuoteContainer ugc baseHtml">
<img src="https://i.imgur.com/VwezKuN.png" class="bbCodeImage LbImage" alt="[​IMG]" data-url="https://i.imgur.com/VwezKuN.png" style=""><br>
<img src="https://i.imgur.com/lblXmmR.png" class="bbCodeImage LbImage" alt="[​IMG]" data-url="https://i.imgur.com/lblXmmR.png" style=""><br>
<img src="https://i.imgur.com/uwZwbEj.png" class="bbCodeImage LbImage" alt="[​IMG]" data-url="https://i.imgur.com/uwZwbEj.png" style=""><br>
<br>
<div class="bbCodeBlock bbCodeCode">
<div class="type">Code:</div>
<pre>General
Format                                   : Matroska
Format version                           : Version 4
File size                                : 255 MiB
Duration                                 : 3 min 42 s
Overall bit rate                         : 9 596 kb/s
Frame rate                               : 60.000 FPS

Video
ID                                       : 1
Format                                   : HEVC
Format/Info                              : High Efficiency Video Coding
Format profile                           : Main 10@L5.1@High
Codec ID                                 : V_MPEGH/ISO/HEVC
Duration                                 : 3 min 42 s
Bit rate                                 : 8 957 kb/s
Width                                    : 1 920 pixels
Height                                   : 1 080 pixels
Display aspect ratio                     : 16:9
Frame rate mode                          : Constant
Frame rate                               : 60.000 FPS
Color space                              : YUV
Chroma subsampling                       : 4:2:0 (Type 0)
Bit depth                                : 10 bits
Bits/(Pixel*Frame)                       : 0.072
Stream size                              : 238 MiB (93%)
Default                                  : Yes
Forced                                   : No
Color range                              : Limited
Color primaries                          : BT.709
Transfer characteristics                 : BT.709
Matrix coefficients                      : BT.709

Audio
ID                                       : 2
Format                                   : AC-3
Format/Info                              : Audio Coding 3
Commercial name                          : Dolby Digital
Codec ID                                 : A_AC3
Duration                                 : 3 min 42 s
Bit rate mode                            : Constant
Bit rate                                 : 448 kb/s
Channel(s)                               : 2 channels
Channel layout                           : L R
Sampling rate                            : 48.0 kHz
Frame rate                               : 31.250 FPS (1536 SPF)
Compression mode                         : Lossy
Delay relative to video                  : -5 ms
Stream size                              : 11.9 MiB (5%)
Title                                    : Stereo
Service kind                             : Complete Main
Default                                  : Yes
Forced                                   : No</pre>
</div><div style="text-align: center">
<div class="bbCodeBlock bbCodeVfcHH HiddenContent">
<div class="attribution type">Hidden Content:</div>
<blockquote>You must reply before you can see the hidden data contained here.</blockquote>
</div></div>
<div class="messageTextEndMarker">&nbsp;</div>
</blockquote>
</article>]]></description>
                <author><![CDATA[Librious]]></author>
                </item>

                </channel></rss>